<?xml version="1.0" ?>
<!-- Uploaded to: SVG Repo, www.svgrepo.com, Generator: SVG Repo Mixer Tools -->
<svg width="800px" height="800px" viewBox="0 0 32 32" xmlns="http://www.w3.org/2000/svg">
<defs>
<style>.cls-1{fill:#f2f2f2;}.cls-2{fill:#2e3192;}.cls-3{fill:#3fa9f5;}</style>
</defs>
<title/>
<g data-name="01" id="_01">
<circle class="cls-1" cx="16" cy="16" r="13"/>
<path class="cls-2" d="M16,30A13.92,13.92,0,0,1,2.61,20.1a1,1,0,1,1,1.91-.58A12,12,0,1,0,4,16a1,1,0,0,1-2,0A14,14,0,1,1,16,30Z"/>
<polygon class="cls-3" points="15 11.5 15 20.5 9 16 15 11.5"/>
<path class="cls-2" d="M15,21.5a1,1,0,0,1-.6-.2l-6-4.5a1,1,0,0,1,0-1.6l6-4.5a1,1,0,0,1,1-.09,1,1,0,0,1,.55.89v9a1,1,0,0,1-.55.89A.91.91,0,0,1,15,21.5ZM10.67,16,14,18.5v-5Z"/>
<polygon class="cls-3" points="21 11.5 21 20.5 15 16 21 11.5"/>
<path class="cls-2" d="M21,21.5a1,1,0,0,1-.6-.2l-6-4.5a1,1,0,0,1,0-1.6l6-4.5a1,1,0,0,1,1.05-.09,1,1,0,0,1,.55.89v9a1,1,0,0,1-.55.89A.91.91,0,0,1,21,21.5ZM16.67,16,20,18.5v-5Z"/>
</g>
</svg>